<svg width="495" height="462" viewBox="0 0 495 462" fill="none" xmlns="http://www.w3.org/2000/svg">
<path d="M385.298 142.694L435.074 189.153C443.447 196.966 452.972 205.466 461.01 213.413C467.358 219.248 473.67 225.118 479.942 231.025L470.226 240.103C468.726 241.502 466.384 243.812 464.826 244.991C463.979 246.038 461.446 248.285 460.338 249.321L451.893 257.205L423.165 284.018L374.388 329.536L358.503 344.364C355.534 347.133 352.121 350.491 349.037 353.045C344.258 357.026 338.905 360.36 333.134 362.951C330.213 364.493 323.92 366.512 320.823 367.261C301.804 371.857 283.626 369.363 266.705 360.284C264.477 359.028 262.323 357.661 260.252 356.188C261.729 354.791 263.441 353.086 265.014 351.828C266.707 349.932 271.122 346.047 273.181 344.134L289.287 329.186L305.724 344.527C312.483 328.656 318.149 311.635 325.137 295.804C325.463 295.066 332.126 289.085 333.11 288.18L394.443 231.042L362.334 201.07C369.715 181.661 377.707 162.08 385.298 142.694Z" fill="url(#paint0_linear_3441_58)"/>
<path d="M333.11 288.18L333.088 337.898L333.091 354.426C333.092 356.927 332.979 360.515 333.134 362.951C330.213 364.493 323.92 366.512 320.823 367.261C301.804 371.857 283.626 369.363 266.705 360.284C264.477 359.028 262.323 357.661 260.252 356.188C261.729 354.791 263.441 353.086 265.014 351.828C266.707 349.932 271.122 346.047 273.181 344.134L289.287 329.186L305.724 344.527C312.483 328.656 318.149 311.635 325.137 295.804C325.463 295.066 332.126 289.085 333.11 288.18Z" fill="url(#paint1_linear_3441_58)"/>
<path d="M265.014 351.828L265.43 351.927C265.887 351.542 266.284 351.207 266.718 350.793L266.705 360.284C264.477 359.028 262.323 357.661 260.252 356.188C261.729 354.791 263.441 353.086 265.014 351.828Z" fill="white"/>
<path d="M461.01 213.413C467.358 219.248 473.67 225.118 479.942 231.025L470.226 240.104C468.726 241.502 466.384 243.812 464.826 244.991C463.934 244.735 462.41 247.366 460.816 248L460.483 247.822C460.804 246.12 460.659 240.972 460.655 238.96L460.604 220.814C460.6 218.989 460.395 214.938 461.01 213.413Z" fill="white"/>
<path d="M208.063 157.101L249.986 196.235L263.044 184.044C263.415 189.808 263.093 198.646 263.107 204.682L263.115 248.098L263.117 268.372C263.121 269.983 263.271 277.017 262.92 278.252L254.444 270.336L110.542 404.517C114.801 393 119.742 381.074 124.274 369.574L150.735 302.442L208.063 157.101Z" fill="url(#paint2_linear_3441_58)"/>
<path d="M346.088 106.465L393.799 61.9021C390.906 69.857 387.412 78.2794 384.285 86.2152L366.92 130.254L354.127 162.711C351.954 168.228 349.439 175.192 347.023 180.539C346.03 183.763 343.84 188.836 342.533 192.144L333.866 214.081L308.948 277.323L300.633 298.419C299.263 301.894 297.532 305.967 296.312 309.42L262.92 278.252C263.271 277.017 263.121 269.983 263.117 268.372L263.115 248.098L263.106 204.682C263.093 198.646 263.415 189.808 263.044 184.044L346.088 106.465Z" fill="url(#paint3_linear_3441_58)"/>
<path d="M346.088 106.465L393.799 61.9021C390.906 69.857 387.412 78.2794 384.285 86.2152L366.92 130.254L354.127 162.711C351.954 168.228 349.439 175.192 347.023 180.539C346.217 179.458 346.484 174.438 346.484 172.883L346.488 160.666L346.517 121.422C346.519 119.442 346.817 107.416 346.088 106.465Z" fill="url(#paint4_linear_3441_58)"/>
<path d="M16.5183 231.023L49.7946 199.965C55.5361 194.606 61.5755 188.741 67.4297 183.556C68.0018 183.872 67.7524 183.869 68.2195 183.842C70.7898 183.69 73.5178 183.747 76.1078 183.744L90.4482 183.741L135.892 183.747C138.207 183.747 149.872 183.986 151.108 183.638C151.649 184.171 151.44 183.846 151.521 184.763L102.018 231.035L139.92 266.409C137.476 273.013 134.602 279.968 132.009 286.555L116.966 324.746L16.5183 231.023Z" fill="url(#paint5_linear_3441_58)"/>
<path d="M187.43 71.5025L248.207 14.7407C255.812 21.8285 263.817 29.1082 271.261 36.2994L328.84 90.0043L286.055 129.901C281.09 125.266 275.402 120.199 270.623 115.489C265.649 110.937 260.683 106.166 255.738 101.592C248.803 95.1798 243.306 89.471 234.497 85.0596C219.308 77.4552 203.796 76.2609 187.44 80.6517C184.622 81.4075 181.841 82.5461 179.123 83.5948C178.826 83.3247 178.821 83.4571 178.149 83.4592C177.84 82.6945 177.986 81.2186 178.003 80.3111L187.43 71.5025Z" fill="url(#paint6_linear_3441_58)"/>
<path d="M271.261 36.2993L328.84 90.0042L286.055 129.901C281.09 125.266 275.402 120.199 270.623 115.489C270.8 109.367 270.641 102.453 270.641 96.2722L270.64 59.1867L270.639 45.2844C270.638 42.8243 270.604 40.2808 270.678 37.8234C270.707 36.8996 270.739 36.9936 271.261 36.2993Z" fill="url(#paint7_linear_3441_58)"/>
<path d="M178.003 80.311L187.43 71.5024L187.44 80.6516C184.622 81.4074 181.841 82.546 179.123 83.5948C178.826 83.3246 178.821 83.457 178.149 83.4591C177.84 82.6944 177.986 81.2185 178.003 80.311Z" fill="white"/>
<path d="M67.4297 183.556C84.0776 167.615 101.533 151.692 118.422 135.913L135.458 119.958C142.54 113.32 148.1 107.492 156.725 102.444C167.593 96.1011 180.124 92.6754 192.942 92.5433C207.788 92.3537 224.39 97.1503 236.024 105.857L212.532 127.889C208.246 123.892 203.734 119.519 199.382 115.634L188.734 142.67C188.029 144.46 184.663 153.332 183.958 154.189C182.31 156.193 176.504 161.428 174.305 163.486L151.521 184.763C151.44 183.846 151.649 184.171 151.108 183.638C149.872 183.986 138.207 183.747 135.892 183.747L90.4482 183.741L76.1078 183.744C73.5177 183.747 70.7898 183.69 68.2194 183.842C67.7524 183.869 68.0018 183.872 67.4297 183.556Z" fill="url(#paint8_linear_3441_58)"/>
<path d="M213.725 335.281L236.3 356.363C240.892 360.651 247.195 366.9 251.99 370.684C262.148 378.708 274.872 383.36 288.168 383.91C302.033 384.484 318.822 380.006 329.171 371.214L329.518 371.401L248.196 447.249L171.023 375.224L213.725 335.281Z" fill="white"/>
<path d="M165.974 91.5707C169.777 87.843 174.078 83.9713 178.003 80.311C177.986 81.2186 177.84 82.6945 178.149 83.4591C178.821 83.4571 178.826 83.3246 179.123 83.5948C178.722 83.9253 175.92 85.2819 175.249 85.6314C171.9 87.3745 169.111 89.5743 165.974 91.5707Z" fill="url(#paint9_linear_3441_58)"/>
<path d="M334.01 367.117C333.097 368.271 330.873 370.813 329.518 371.401L329.171 371.214C330.748 369.804 332.294 368.378 334.01 367.117Z" fill="#E1EFFD"/>
<defs>
<linearGradient id="paint0_linear_3441_58" x1="460.679" y1="252.88" x2="333.059" y2="252.883" gradientUnits="userSpaceOnUse">
<stop stop-color="white"/>
<stop offset="1" stop-color="white"/>
</linearGradient>
<linearGradient id="paint1_linear_3441_58" x1="332.829" y1="329.014" x2="266.829" y2="329.03" gradientUnits="userSpaceOnUse">
<stop stop-color="white"/>
<stop offset="1" stop-color="white"/>
</linearGradient>
<linearGradient id="paint2_linear_3441_58" x1="110.938" y1="280.742" x2="262.97" y2="280.74" gradientUnits="userSpaceOnUse">
<stop stop-color="white"/>
<stop offset="1" stop-color="white"/>
</linearGradient>
<linearGradient id="paint3_linear_3441_58" x1="262.967" y1="207.653" x2="346.597" y2="207.651" gradientUnits="userSpaceOnUse">
<stop stop-color="white"/>
<stop offset="1" stop-color="white"/>
</linearGradient>
<linearGradient id="paint4_linear_3441_58" x1="346.35" y1="121.48" x2="393.008" y2="121.476" gradientUnits="userSpaceOnUse">
<stop stop-color="white"/>
<stop offset="1" stop-color="white"/>
</linearGradient>
<linearGradient id="paint5_linear_3441_58" x1="84.2268" y1="183.624" x2="84.2543" y2="323.722" gradientUnits="userSpaceOnUse">
<stop stop-color="white"/>
<stop offset="1" stop-color="white"/>
</linearGradient>
<linearGradient id="paint6_linear_3441_58" x1="270.707" y1="64.9676" x2="187.557" y2="64.9776" gradientUnits="userSpaceOnUse">
<stop stop-color="white"/>
<stop offset="1" stop-color="white"/>
</linearGradient>
<linearGradient id="paint7_linear_3441_58" x1="327.744" y1="82.7878" x2="270.701" y2="82.7907" gradientUnits="userSpaceOnUse">
<stop stop-color="white"/>
<stop offset="1" stop-color="white"/>
</linearGradient>
<linearGradient id="paint8_linear_3441_58" x1="151.528" y1="92.8597" x2="151.369" y2="184.078" gradientUnits="userSpaceOnUse">
<stop stop-color="white"/>
<stop offset="1" stop-color="white"/>
</linearGradient>
<linearGradient id="paint9_linear_3441_58" x1="178.469" y1="84.4017" x2="166.543" y2="87.2657" gradientUnits="userSpaceOnUse">
<stop stop-color="white"/>
<stop offset="1" stop-color="white"/>
</linearGradient>
</defs>
</svg>
