<?xml version="1.0" encoding="utf-8" ?><svg xmlns="http://www.w3.org/2000/svg" xmlns:xlink="http://www.w3.org/1999/xlink" width="4096" height="4096" viewBox="0 0 4096 4096"><path fill="white" d="M0 0L4096 0L4096 4096L0 4096L0 0Z"/><defs><linearGradient id="gradient_0" gradientUnits="userSpaceOnUse" x1="1915.9958" y1="1330.0044" x2="2158.0044" y2="1330"><stop offset="0" stop-color="#373737"/><stop offset="1" stop-color="#646464"/></linearGradient></defs><path fill="url(#gradient_0)" d="M2407.62 838.978C2418.03 827.146 2430.31 815.588 2441.65 804.499C2429.16 837.024 2417.09 869.711 2405.44 902.552C2324.24 1120.39 2246.15 1343.16 2163.33 1559.83C2160.77 1566.39 2161.29 1568.92 2156.59 1571.37C2116.49 1532.78 2076.39 1491.7 2036.99 1452.22L1918.8 1570.38L1619.96 1868.78L1902.48 1100.12L1918.61 1116.22L2024.36 1221.95L2159.39 1086.83C2169.53 1075.64 2182.05 1063.5 2193.03 1052.88C2265.29 982.884 2334.59 908.014 2407.62 838.978Z"/><defs><linearGradient id="gradient_1" gradientUnits="userSpaceOnUse" x1="1624.0895" y1="1483.9663" x2="1916.0192" y2="1484.0361"><stop offset="0" stop-color="#010101"/><stop offset="1" stop-color="#373737"/></linearGradient></defs><path fill="url(#gradient_1)" d="M1902.48 1100.12L1918.61 1116.22C1915.86 1143.7 1917.1 1185.67 1917.14 1214.39L1917.31 1384.76L1917.2 1504.72C1917.19 1520.04 1916.25 1557.11 1918.8 1570.38L1619.96 1868.78L1902.48 1100.12Z"/><defs><linearGradient id="gradient_2" gradientUnits="userSpaceOnUse" x1="2157.95" y1="1204.0175" x2="2400.0442" y2="1203.9822"><stop offset="0" stop-color="#646464"/><stop offset="1" stop-color="#929292"/></linearGradient></defs><path fill="url(#gradient_2)" d="M2407.62 838.978C2418.03 827.146 2430.31 815.588 2441.65 804.499C2429.16 837.024 2417.09 869.711 2405.44 902.552C2324.24 1120.39 2246.15 1343.16 2163.33 1559.83C2157.05 1549.94 2159.25 1512.37 2159.24 1498.98L2159.29 1395.55L2159.39 1086.83C2169.53 1075.64 2182.05 1063.5 2193.03 1052.88C2265.29 982.884 2334.59 908.014 2407.62 838.978Z"/><path fill="#919191" d="M2407.62 838.978C2418.03 827.146 2430.31 815.588 2441.65 804.499C2429.16 837.024 2417.09 869.711 2405.44 902.552C2394.57 895.47 2398.12 857.154 2404.1 846.974C2406.71 842.533 2406.35 845.977 2407.62 838.978Z"/><defs><linearGradient id="gradient_3" gradientUnits="userSpaceOnUse" x1="1693.3062" y1="903.70978" x2="1692.7478" y2="1274.4258"><stop offset="0" stop-color="#0E1E2F"/><stop offset="1" stop-color="#275685"/></linearGradient></defs><path fill="url(#gradient_3)" d="M1378.9 1299.41C1396.21 1279.57 1426.98 1250.63 1446.2 1231.4L1571.71 1105.81L1670.87 1006.51C1693.62 983.696 1718.22 956.247 1744.29 937.726C1819.93 883.993 1909.45 889.531 1984.06 941.457L1915.64 1010.12L1877.68 972.294C1864.44 1005.76 1848.29 1057.16 1834.05 1087.68C1828.97 1098.59 1767.54 1158.47 1756.01 1169.7C1715.79 1208.87 1674.38 1253.02 1633.63 1291.52C1627.25 1298.31 1619.7 1307.14 1612.25 1312.35C1607.43 1318.24 1600.91 1324.61 1595.54 1330.19L1705.54 1440.2C1682.69 1495.99 1660.39 1563.7 1638.56 1621.26L1347.46 1330.16C1354.77 1322.68 1362.19 1315.74 1369.78 1308.57C1371.79 1305.46 1376.01 1302.07 1378.9 1299.41Z"/><defs><linearGradient id="gradient_4" gradientUnits="userSpaceOnUse" x1="1528.9998" y1="1331.9991" x2="1529.0011" y2="1612.0005"><stop offset="0" stop-color="#2A5F93"/><stop offset="1" stop-color="#3E89D4"/></linearGradient></defs><path fill="url(#gradient_4)" d="M1369.78 1308.57C1365.49 1319.63 1357.91 1323.42 1354.54 1331.76C1363.7 1337.1 1559.26 1334.72 1585.58 1335.02C1593.87 1326.52 1601.5 1317.12 1612.25 1312.35C1607.43 1318.24 1600.91 1324.61 1595.54 1330.19L1705.54 1440.2C1682.69 1495.99 1660.39 1563.7 1638.56 1621.26L1347.46 1330.16C1354.77 1322.68 1362.19 1315.74 1369.78 1308.57Z"/><path fill="#285A8C" d="M1408.7 1275.43C1419.63 1276.77 1434.47 1277.69 1445.43 1276.99C1506.19 1273.16 1583.31 1283.31 1642.42 1275.1L1643.83 1276.87C1640.16 1280.82 1636.45 1284.73 1632.7 1288.62L1633.63 1291.52C1627.25 1298.31 1619.7 1307.14 1612.25 1312.35C1601.5 1317.12 1593.87 1326.52 1585.58 1335.02C1559.26 1334.72 1363.7 1337.1 1354.54 1331.76C1357.91 1323.42 1365.49 1319.63 1369.78 1308.57C1371.79 1305.46 1376.01 1302.07 1378.9 1299.41L1381.15 1300.63C1386.91 1298.37 1403.39 1280.74 1408.7 1275.43Z"/><defs><linearGradient id="gradient_5" gradientUnits="userSpaceOnUse" x1="1673.8929" y1="2562.1548" x2="1674.1056" y2="2230.1562"><stop offset="0" stop-color="#1A3B5B"/><stop offset="1" stop-color="#3678BA"/></linearGradient></defs><path fill="url(#gradient_5)" d="M1427.14 2222.95C1431.57 2229.79 1431.39 2232.47 1438.97 2233.76C1469.09 2238.87 1555.32 2230.17 1579.96 2235.56L1579.96 2419.86L1924 2419.86L1924.01 2565.97L1427.05 2565.98L1427.14 2222.95Z"/><defs><linearGradient id="gradient_6" gradientUnits="userSpaceOnUse" x1="1076.9996" y1="2232.0002" x2="1077.0001" y2="2003.9994"><stop offset="0" stop-color="#3678BA"/><stop offset="1" stop-color="#49A2FB"/></linearGradient></defs><path fill="url(#gradient_6)" d="M794.357 2001.22L1361.97 2001.22L1361.97 2146.33L1154.22 2146.33L1154.22 2222.83C1153.06 2225.75 1151.55 2231.6 1149.19 2232.11C1106.19 2241.43 1050.02 2226.97 1007.07 2236.77C1005.19 2239.82 1003.56 2242.48 1002.17 2244.75L1002.03 2146.32L794.362 2146.32L794.357 2001.22Z"/><defs><linearGradient id="gradient_7" gradientUnits="userSpaceOnUse" x1="3727.9951" y1="2232.0022" x2="3728.0022" y2="2003.9913"><stop offset="0" stop-color="#3678BA"/><stop offset="1" stop-color="#49A2FB"/></linearGradient></defs><path fill="url(#gradient_7)" d="M3445.76 2001.22L4012.91 2001.22L4012.91 2146.33L3805.65 2146.33L3805.6 2235.98C3800.37 2232.92 3672.6 2234.42 3653.32 2233.92L3653.32 2146.33L3445.76 2146.33L3445.76 2001.22Z"/><defs><linearGradient id="gradient_8" gradientUnits="userSpaceOnUse" x1="2584.0054" y1="1347.9915" x2="2354.0051" y2="1348.0021"><stop offset="0" stop-color="#1A1A1A"/><stop offset="1" stop-color="#515151"/></linearGradient></defs><path fill="url(#gradient_8)" d="M2416.27 1055.69L2546.24 1185.57C2563.78 1203.09 2599.15 1236.5 2614.2 1254.48C2639.39 1277.3 2666.48 1305.75 2690.73 1330.06C2681.07 1339.86 2628.09 1394.44 2619.59 1400.22C2593.73 1428.66 2559.89 1460.92 2532.27 1488.52L2378.63 1641.93C2377.44 1615.8 2378.36 1581.76 2378.35 1555.12L2378.57 1394.04L2442.57 1330.04L2349.63 1237.12L2416.27 1055.69Z"/><path fill="#111" d="M2619.59 1400.22C2607.95 1404.48 2597.43 1418.15 2586.89 1426.67C2584.49 1420.32 2584.26 1239.66 2587.75 1233.59C2594.7 1240.27 2606.52 1254.03 2614.2 1254.48C2639.39 1277.3 2666.48 1305.75 2690.73 1330.06C2681.07 1339.86 2628.09 1394.44 2619.59 1400.22Z"/><defs><linearGradient id="gradient_9" gradientUnits="userSpaceOnUse" x1="3162.9658" y1="2561.9763" x2="3163.0266" y2="2231.9858"><stop offset="0" stop-color="#1A3B5B"/><stop offset="1" stop-color="#3678BA"/></linearGradient></defs><path fill="url(#gradient_9)" d="M3234.39 2234.08C3237.43 2232.97 3369.96 2234.42 3381.73 2235.34L3381.9 2420.79C3381.9 2453.75 3383.15 2486.66 3380.19 2519.65C3377.09 2558.69 3346.61 2566.92 3312.97 2566.7C3275.27 2566.45 3249.29 2563.92 3222.53 2534.05C3132.57 2433.62 3034.26 2336.59 2945.83 2235.15C2969.56 2233.08 3129.27 2231.83 3146.08 2235.42C3176.26 2265.46 3204.55 2300.05 3234.29 2329.56L3234.39 2234.08Z"/><defs><linearGradient id="gradient_10" gradientUnits="userSpaceOnUse" x1="639.94116" y1="2561.8977" x2="640.3736" y2="2231.9351"><stop offset="0" stop-color="#1A3B5B"/><stop offset="1" stop-color="#3678BA"/></linearGradient></defs><path fill="url(#gradient_10)" d="M693.569 2228.31C756.984 2339.8 816.978 2454.38 880.117 2565.98L714.718 2565.98L667.633 2478.99L402.753 2478.98C423.141 2440.69 445.906 2395.15 467.24 2358.08L603.136 2358.08C586.799 2327.31 553.05 2267.87 540.452 2238.54C551.409 2224.85 681.122 2245.43 693.569 2228.31Z"/><defs><linearGradient id="gradient_11" gradientUnits="userSpaceOnUse" x1="2472.9443" y1="2561.9045" x2="2473.353" y2="2231.9421"><stop offset="0" stop-color="#1A3B5B"/><stop offset="1" stop-color="#3678BA"/></linearGradient></defs><path fill="url(#gradient_11)" d="M2527.54 2231.51C2539.94 2248.67 2573.75 2313.88 2586.59 2337.19L2712.8 2565.98L2547.5 2565.98C2531.88 2536.89 2516.11 2507.89 2500.18 2478.98L2235.58 2478.98L2299.86 2358.08L2436.07 2358.08L2374.71 2242.48C2375.26 2241.2 2377.99 2236.24 2378.66 2236.07C2404.65 2229.42 2508.09 2239.6 2527.54 2231.51Z"/><defs><linearGradient id="gradient_12" gradientUnits="userSpaceOnUse" x1="2112.0281" y1="829.008" x2="1834.0035" y2="828.96082"><stop offset="0" stop-color="#2D2D2D"/><stop offset="1" stop-color="#858585"/></linearGradient></defs><path fill="url(#gradient_12)" d="M2018.98 658.384C2050.6 690.275 2083.59 721.787 2114.45 754.291C2160.85 800.01 2206.98 846.002 2252.84 892.267C2213.49 931.56 2168.7 978.723 2128.66 1016.14L2114.55 1002.01C2023.54 910.437 1966.66 822.147 1825.29 869.363C1809.59 877.647 1799.52 883.752 1784.7 893.57C1794.35 883.431 1804.22 872.547 1814.83 863.538C1830.07 845.518 1864.98 812.462 1882.74 794.684L2018.98 658.384Z"/><defs><linearGradient id="gradient_13" gradientUnits="userSpaceOnUse" x1="2243.9988" y1="882.97705" x2="2112.0225" y2="883.00146"><stop offset="0" stop-color="#030303"/><stop offset="1" stop-color="#2D2D2D"/></linearGradient></defs><path fill="url(#gradient_13)" d="M2114.45 754.291C2160.85 800.01 2206.98 846.002 2252.84 892.267C2213.49 931.56 2168.7 978.723 2128.66 1016.14L2114.55 1002.01C2113.54 978.123 2112.44 758.904 2114.45 754.291Z"/><path fill="#919191" d="M1814.83 863.538C1821.86 863.005 1827.57 856.147 1832.74 851.377C1836.03 857.806 1835.72 854.562 1833.85 861.422C1829.12 864.689 1827.54 865.653 1822.41 868.214L1825.29 869.363C1809.59 877.647 1799.52 883.752 1784.7 893.57C1794.35 883.431 1804.22 872.547 1814.83 863.538Z"/><path fill="#489EF6" d="M1918.84 1653.86C2023.9 1752.75 2096.88 1870.63 2254.5 1765.9C2202.85 1820.26 2143.46 1877.25 2090.04 1930.68L2018.86 2001.59L1795.14 1777.85L1918.84 1653.86Z"/><defs><linearGradient id="gradient_14" gradientUnits="userSpaceOnUse" x1="2955" y1="2232.0027" x2="2954.9966" y2="2003.9982"><stop offset="0" stop-color="#3678BA"/><stop offset="1" stop-color="#49A2FB"/></linearGradient></defs><path fill="url(#gradient_14)" d="M2768.77 2232.85L2768.57 2121.7C2768.53 2092.15 2763.25 2042.49 2784.04 2019.88C2804.11 1998.04 2839.84 2001.58 2866.81 2001.02C2908.2 2000.39 2933.35 2005.99 2962.36 2037.03C2991.82 2068.56 3022.65 2100.88 3051.72 2132.97C3082.32 2166.78 3116.56 2201.18 3146.08 2235.42C3129.27 2231.83 2969.56 2233.08 2945.83 2235.15C2936.6 2225.96 2926.07 2213.83 2917.12 2204.04L2916.66 2224.76C2912.83 2230.03 2911.59 2234.26 2905.96 2234.18C2868.79 2233.63 2803.46 2237.33 2768.77 2232.85Z"/><defs><linearGradient id="gradient_15" gradientUnits="userSpaceOnUse" x1="2339" y1="2234.0012" x2="2338.9924" y2="2003.9991"><stop offset="0" stop-color="#3677B9"/><stop offset="1" stop-color="#49A2FB"/></linearGradient></defs><path fill="url(#gradient_15)" d="M2150.13 2231.1L2217.6 2108.14C2234.59 2077.2 2263.17 2009.98 2300.26 2004.21C2339.12 1998.17 2397.07 1994.6 2418.63 2034.78C2452.58 2098.06 2497.66 2166.77 2527.54 2231.51C2508.09 2239.6 2404.65 2229.42 2378.66 2236.07C2377.99 2236.24 2375.26 2241.2 2374.71 2242.48C2363.07 2222 2350.99 2197.77 2339.86 2176.71C2330.33 2195.74 2319.33 2215.57 2309.26 2234.44C2283.14 2234.38 2167.32 2237.35 2150.13 2231.1Z"/><defs><linearGradient id="gradient_16" gradientUnits="userSpaceOnUse" x1="505" y1="2232.0002" x2="504.99979" y2="2004"><stop offset="0" stop-color="#3678BA"/><stop offset="1" stop-color="#49A2FB"/></linearGradient></defs><path fill="url(#gradient_16)" d="M315.169 2235.28C337.553 2189.67 366.953 2142.6 390.699 2097.7C415.974 2049.9 436.617 1994.67 500.508 2001.09C516.911 2002.73 528.698 1999.14 547.302 2004.72C558.901 2008.11 569.293 2014.74 577.257 2023.83C592.81 2041.37 613.774 2082.79 626.185 2105.35L693.569 2228.31C681.122 2245.43 551.409 2224.85 540.452 2238.54C536.949 2234.76 511.064 2184.55 507.167 2177.1C496.915 2196.92 486.359 2216.59 475.504 2236.09C469.082 2233.75 326.071 2232.95 315.169 2235.28Z"/><defs><linearGradient id="gradient_17" gradientUnits="userSpaceOnUse" x1="303.9888" y1="2562.0115" x2="304.01147" y2="2231.9985"><stop offset="0" stop-color="#1A3B5B"/><stop offset="1" stop-color="#3678BA"/></linearGradient></defs><path fill="url(#gradient_17)" d="M315.169 2235.28C326.071 2232.95 469.082 2233.75 475.504 2236.09C458.493 2271.47 434.532 2313.77 415.871 2348.92L300.46 2565.98L132.87 2565.98C151.644 2528.55 177.958 2483.7 198.471 2446.46L315.169 2235.28Z"/><defs><linearGradient id="gradient_18" gradientUnits="userSpaceOnUse" x1="2137.9546" y1="2562.0454" x2="2138.0447" y2="2231.9951"><stop offset="0" stop-color="#1A3B5B"/><stop offset="1" stop-color="#3678BA"/></linearGradient></defs><path fill="url(#gradient_18)" d="M1965.26 2565.98L2150.13 2231.1C2167.32 2237.35 2283.14 2234.38 2309.26 2234.44C2291.95 2269.91 2268.66 2311.09 2249.92 2346.37L2133.23 2565.98L1965.26 2565.98Z"/><defs><linearGradient id="gradient_19" gradientUnits="userSpaceOnUse" x1="2376.0217" y1="1577.0415" x2="2060.051" y2="1576.9255"><stop offset="0" stop-color="#4C4C4C"/><stop offset="1" stop-color="#989898"/></linearGradient></defs><path fill="url(#gradient_19)" d="M2185.7 1682.3L2218.4 1592.62C2242.63 1526.38 2239.36 1532.86 2289.41 1482.95L2378.57 1394.04L2378.35 1555.12C2378.36 1581.76 2377.44 1615.8 2378.63 1641.93C2328.44 1693.34 2286.37 1744.49 2212.39 1756.94C2151.74 1767.15 2103.26 1753.15 2053.68 1718.85L2138 1634.59L2185.7 1682.3Z"/><defs><linearGradient id="gradient_20" gradientUnits="userSpaceOnUse" x1="3727.8101" y1="2562.0803" x2="3728.1877" y2="2233.9172"><stop offset="0" stop-color="#1A3B5B"/><stop offset="1" stop-color="#3677B9"/></linearGradient></defs><path fill="url(#gradient_20)" d="M3653.32 2233.92C3672.6 2234.42 3800.37 2232.92 3805.6 2235.98L3805.65 2565.98L3653.33 2565.98L3653.32 2233.92Z"/><defs><linearGradient id="gradient_21" gradientUnits="userSpaceOnUse" x1="1078.366" y1="2562.1543" x2="1077.6348" y2="2232.1604"><stop offset="0" stop-color="#1A3B5B"/><stop offset="1" stop-color="#3678BA"/></linearGradient></defs><path fill="url(#gradient_21)" d="M1002.17 2244.75C1003.56 2242.48 1005.19 2239.82 1007.07 2236.77C1050.02 2226.97 1106.19 2241.43 1149.19 2232.11C1151.55 2231.6 1153.06 2225.75 1154.22 2222.83L1154.23 2565.98L1002.04 2565.98C1002.04 2462.99 999.219 2346.54 1002.17 2244.75Z"/><defs><linearGradient id="gradient_22" gradientUnits="userSpaceOnUse" x1="2842.3245" y1="2562.1313" x2="2841.6799" y2="2230.1365"><stop offset="0" stop-color="#1A3B5B"/><stop offset="1" stop-color="#3678BA"/></linearGradient></defs><path fill="url(#gradient_22)" d="M2768.77 2232.85C2803.46 2237.33 2868.79 2233.63 2905.96 2234.18C2911.59 2234.26 2912.83 2230.03 2916.66 2224.76L2916.65 2565.98L2768.77 2565.98L2768.77 2232.85Z"/><defs><linearGradient id="gradient_23" gradientUnits="userSpaceOnUse" x1="1501.8798" y1="2232.0742" x2="1502.1224" y2="2003.9236"><stop offset="0" stop-color="#3678BA"/><stop offset="1" stop-color="#49A2FB"/></linearGradient></defs><path fill="url(#gradient_23)" d="M1427.04 2001.22L1579.97 2001.22L1579.96 2235.56C1555.32 2230.17 1469.09 2238.87 1438.97 2233.76C1431.39 2232.47 1431.57 2229.79 1427.14 2222.95L1427.04 2001.22Z"/><defs><linearGradient id="gradient_24" gradientUnits="userSpaceOnUse" x1="3306.8689" y1="2232.0752" x2="3307.1335" y2="2003.9224"><stop offset="0" stop-color="#3678BA"/><stop offset="1" stop-color="#49A2FB"/></linearGradient></defs><path fill="url(#gradient_24)" d="M3234.29 2001.22L3381.76 2001.22L3381.73 2235.34C3369.96 2234.42 3237.43 2232.97 3234.39 2234.08C3233.1 2158.22 3234.31 2077.41 3234.29 2001.22Z"/><defs><linearGradient id="gradient_25" gradientUnits="userSpaceOnUse" x1="2150.9958" y1="2862.0012" x2="2151.0046" y2="2705.9983"><stop offset="0" stop-color="#1E1E1E"/><stop offset="1" stop-color="#626262"/></linearGradient></defs><path fill="url(#gradient_25)" d="M2129.73 2702.57C2154.87 2699.83 2187.78 2701.23 2210.09 2713.35C2228.98 2723.46 2242.94 2740.84 2248.75 2761.47C2263.68 2814.07 2232.18 2853.15 2182.14 2865.92C2151.54 2868.71 2116.81 2869.65 2089.95 2852.94C2071.87 2841.8 2059.16 2823.73 2054.79 2802.95C2043.31 2749.22 2078.06 2710.76 2129.73 2702.57Z"/><path fill="white" d="M2132.44 2744.61C2146.24 2744.44 2173.28 2742.66 2184.26 2748.32C2220.86 2767.16 2212.76 2812.56 2174.64 2824.07C2148.91 2824.13 2108.47 2829.75 2099.41 2798.64C2091.54 2771.58 2106.71 2750.91 2132.44 2744.61Z"/><defs><linearGradient id="gradient_26" gradientUnits="userSpaceOnUse" x1="2726.981" y1="2862.0061" x2="2727.0195" y2="2705.9927"><stop offset="0" stop-color="#1E1E1E"/><stop offset="1" stop-color="#626262"/></linearGradient></defs><path fill="url(#gradient_26)" d="M2704.85 2702.44C2732.24 2700.81 2761.93 2700.15 2786.38 2713.72C2805.34 2724.01 2819.23 2741.63 2824.8 2762.47C2838.74 2814.15 2807.69 2853.75 2758.07 2865.73C2728.68 2868.94 2693.3 2869.45 2667.29 2853.95C2648.75 2843.06 2635.55 2824.99 2630.81 2804.01C2618.38 2749.76 2653.08 2711.68 2704.85 2702.44Z"/><path fill="white" d="M2708.41 2744.61C2733.9 2744.16 2771.44 2739.8 2781.01 2770.02C2789.34 2796.34 2774.77 2815.97 2750.83 2824.09C2736.47 2824.14 2706.01 2826.18 2694.96 2820.02C2658.8 2799.89 2669.27 2753.77 2708.41 2744.61Z"/><defs><linearGradient id="gradient_27" gradientUnits="userSpaceOnUse" x1="3031.981" y1="2862.0054" x2="3032.05" y2="2705.9636"><stop offset="0" stop-color="#1E1E1E"/><stop offset="1" stop-color="#626262"/></linearGradient></defs><path fill="url(#gradient_27)" d="M3021.75 2702.58C3053.23 2701.18 3089.46 2702.05 3121.31 2702.12L3121.32 2744.6C3083.27 2744.92 2996.61 2729.99 2990.36 2777.89C2987.28 2801.44 3002.76 2824.07 3027.58 2823.92C3039.09 2823.84 3070.21 2827.33 3078.49 2820.2C3078.81 2812.99 3079.41 2810.25 3077.08 2803.31C3066.31 2800.26 3038.42 2801.76 3025.57 2801.95L3025.57 2766.41L3053 2766.42L3121.32 2766.42L3121.33 2866.98C3085.86 2867.2 3007.65 2873.38 2980.1 2852.01C2918.92 2804.54 2939.86 2715.65 3021.75 2702.58Z"/><defs><linearGradient id="gradient_28" gradientUnits="userSpaceOnUse" x1="1838.9136" y1="2862.0942" x2="1839.0911" y2="2705.9036"><stop offset="0" stop-color="#1E1E1E"/><stop offset="1" stop-color="#626262"/></linearGradient></defs><path fill="url(#gradient_28)" d="M1886.76 2702.12L1929.96 2702.12C1929.87 2738.43 1932.87 2821.36 1927.53 2859.87C1926.92 2864.27 1918.02 2866.17 1913.48 2867.54C1911.88 2867.52 1910.28 2867.48 1908.67 2867.43C1890.38 2866.71 1881.14 2856 1869.18 2843.18C1843.99 2816.19 1819.2 2788.75 1794.34 2761.45L1794.34 2866.98L1751.14 2866.98L1750.78 2773.71C1750.73 2755.68 1750.03 2735.66 1752.04 2717.79C1753.07 2708.57 1756.82 2706.93 1763.07 2702.18C1795.33 2701.37 1798.64 2701.98 1821.52 2726.75C1843.27 2750.29 1865.1 2774.2 1886.76 2797.86L1886.76 2702.12Z"/><defs><linearGradient id="gradient_29" gradientUnits="userSpaceOnUse" x1="958.05865" y1="2862.0369" x2="957.98108" y2="2705.9631"><stop offset="0" stop-color="#1E1E1E"/><stop offset="1" stop-color="#626262"/></linearGradient></defs><path fill="url(#gradient_29)" d="M880.006 2702.12L1038.25 2702.12L1038.26 2744.6L924.435 2744.6L924.425 2824.1L967 2824.1L1038.41 2824.1L1038.42 2866.98L879.964 2866.98L880.006 2702.12Z"/><defs><linearGradient id="gradient_30" gradientUnits="userSpaceOnUse" x1="1243.9752" y1="2862.0051" x2="1244.0557" y2="2705.96"><stop offset="0" stop-color="#1E1E1E"/><stop offset="1" stop-color="#626262"/></linearGradient></defs><path fill="url(#gradient_30)" d="M1236.83 2702.41C1263.38 2700.93 1300.77 2702.1 1328.14 2702.12L1328.14 2744.6C1303.61 2744.77 1224.73 2737.85 1213.86 2757.9C1168.88 2840.84 1290.11 2824.35 1322.5 2824.1C1325.24 2824.4 1323.59 2824.01 1327.17 2826.12C1329.3 2836.89 1328.34 2855.38 1328.15 2866.98C1288.78 2867.28 1228.83 2873.05 1196.54 2853.11C1178.42 2842.06 1165.8 2823.87 1161.79 2803.02C1150.85 2748.94 1184.77 2710.7 1236.83 2702.41Z"/><defs><linearGradient id="gradient_31" gradientUnits="userSpaceOnUse" x1="675.98297" y1="2862.002" x2="676.0022" y2="2705.9905"><stop offset="0" stop-color="#1E1E1E"/><stop offset="1" stop-color="#626262"/></linearGradient></defs><path fill="url(#gradient_31)" d="M594.086 2702.12L759.899 2702.12L759.901 2744.6L699.461 2744.63L699.458 2807L699.453 2866.98L654.437 2866.98L654.43 2744.6L594.066 2744.6L594.086 2702.12Z"/><defs><linearGradient id="gradient_32" gradientUnits="userSpaceOnUse" x1="3332.9883" y1="2862.0012" x2="3333" y2="2705.9932"><stop offset="0" stop-color="#1E1E1E"/><stop offset="1" stop-color="#626262"/></linearGradient></defs><path fill="url(#gradient_32)" d="M3381.7 2702.11L3431.62 2702.12L3391.6 2759.02L3356.13 2809.49L3356.14 2866.98L3311.88 2866.98L3311.88 2809.37L3236.24 2702.1L3288.29 2702.12L3334.95 2767.41L3381.7 2702.11Z"/><defs><linearGradient id="gradient_33" gradientUnits="userSpaceOnUse" x1="2446.998" y1="2862.0017" x2="2447.002" y2="2706.0007"><stop offset="0" stop-color="#1E1E1E"/><stop offset="1" stop-color="#626262"/></linearGradient></defs><path fill="url(#gradient_33)" d="M2375.4 2702.12L2420.05 2702.12L2420.05 2824.1L2520.26 2824.1L2520.26 2866.98L2375.4 2866.98L2375.4 2702.12Z"/><defs><linearGradient id="gradient_34" gradientUnits="userSpaceOnUse" x1="1566.9004" y1="2861.9688" x2="1567.2245" y2="2705.8945"><stop offset="0" stop-color="#1E1E1E"/><stop offset="1" stop-color="#626262"/></linearGradient></defs><path fill="url(#gradient_34)" d="M1577.57 2702.12L1622.01 2702.12L1622.01 2866.98C1606.33 2866.69 1593.48 2870.56 1580.7 2864.68C1575.93 2857.78 1577.68 2857.29 1577.56 2847L1577.56 2803.48L1513.42 2803.48L1513.43 2762.53L1577.56 2762.53L1577.57 2702.12Z"/><defs><linearGradient id="gradient_35" gradientUnits="userSpaceOnUse" x1="1477.4047" y1="2862.262" x2="1474.5953" y2="2705.738"><stop offset="0" stop-color="#1E1E1E"/><stop offset="1" stop-color="#626262"/></linearGradient></defs><path fill="url(#gradient_35)" d="M1454.06 2702.12L1498.5 2702.12L1498.5 2866.98L1454.02 2866.98L1454.06 2702.12Z"/><path fill="#404040" d="M938.865 2766.47L1036.34 2766.47L1036.42 2802L938.74 2802L938.865 2766.47Z"/></svg>