<svg width="338" height="237" viewBox="0 0 338 237" fill="none" xmlns="http://www.w3.org/2000/svg">
<path d="M265.04 123.38H277.197L277.198 150.754C277.205 152.728 277.166 155.333 277.219 157.151C277.394 163.073 276.736 164.69 269.623 164.325C264.935 164.084 263.628 161.334 260.532 158.702C257.715 156.15 255.065 153.371 252.23 150.82C251.029 149.544 248.983 147.714 247.653 146.452L238.826 138.057V150.818C235.057 150.826 231.217 150.857 227.447 150.801C226.886 150.792 227.006 150.82 226.756 150.572C226.741 150.203 226.708 150.112 226.633 149.742L226.618 134.419C226.617 131.97 226.458 129.041 226.796 126.693C227.355 122.804 233.143 123.36 236.338 123.394C237.593 123.407 239.325 123.719 240.371 124.348C243.434 126.432 246.729 129.865 249.412 132.407L265.04 147.212V123.38Z" fill="url(#paint0_linear_1398_126)"/>
<path d="M252.23 150.821L268.917 150.827C270.863 150.828 275.516 150.932 277.198 150.754C277.206 152.728 277.166 155.333 277.22 157.151C277.395 163.073 276.736 164.69 269.623 164.325C264.935 164.084 263.628 161.334 260.533 158.702C257.715 156.15 255.066 153.371 252.23 150.821Z" fill="url(#paint1_linear_1398_126)"/>
<path d="M17.4111 150.528C21.5193 143.449 26.3223 136.531 30.5509 129.496C31.4304 128.032 32.3576 126.527 33.4944 125.214C35.5219 122.818 41.2769 122.932 44.0982 124.121C46.1025 125.063 47.8996 128.536 49.0082 130.301L53.7691 137.887L59.0024 146.237C59.8041 147.517 61.0655 149.401 61.744 150.684C62.7269 152.003 63.9056 154.033 64.8063 155.472L70.3553 164.343H56.7267L52.842 158.035H30.983C32.425 155.644 33.8815 153.151 35.3913 150.801L36.2879 149.271H47.5101C45.2514 145.157 42.0817 140.249 39.6001 136.141L30.7556 150.738C30.6901 150.754 30.4718 150.817 30.3405 150.818C26.1604 150.822 21.9217 150.922 17.75 150.781C17.637 150.696 17.5241 150.612 17.4111 150.528Z" fill="url(#paint2_linear_1398_126)"/>
<path d="M62.1426 150.67C63.1255 151.989 64.3042 154.019 65.2049 155.458L70.754 164.328H57.1253L53.2406 158.021H31.3816C32.8236 155.63 34.2801 153.136 35.79 150.786C38.0318 150.924 61.5851 150.871 62.1426 150.67Z" fill="url(#paint3_linear_1398_126)"/>
<path d="M168.817 150.812L179.03 134.517C180.844 131.618 182.686 128.549 184.645 125.731C185.084 125.107 185.799 124.473 186.545 124.13C188.919 122.912 195.329 122.888 197.048 125.017C199.107 127.567 201.131 131.038 202.886 133.863C206.338 139.417 209.937 144.962 213.316 150.557C213.708 151.002 215.584 154.091 216.016 154.782L222.001 164.328H208.365L204.456 158.021H182.608C184.096 155.525 185.61 153.041 187.15 150.57L187.929 149.257H199.177L191.233 136.136L182.347 150.818L168.817 150.812Z" fill="url(#paint4_linear_1398_126)"/>
<path d="M213.316 150.557C213.708 151.003 215.584 154.091 216.016 154.782L222.001 164.328H208.365L204.456 158.021H182.608C184.096 155.525 185.611 153.042 187.15 150.57C187.282 150.642 187.396 150.748 187.545 150.786C188.165 150.95 211.746 150.974 213.132 150.777L213.316 150.557Z" fill="url(#paint5_linear_1398_126)"/>
<path d="M113.393 71.2127C114.879 69.7379 117.131 67.8722 118.748 66.4503L128.788 57.6251L136.422 50.8999C138.232 49.3066 140.142 47.4554 142.238 46.17C148.379 42.4037 155.861 42.7796 161.858 46.5429L156.216 51.5176L153.09 48.7697C151.955 51.3284 150.957 54.8408 149.474 57.1516C148.444 58.7556 138.496 67.1645 136.303 68.9519C135.295 69.8807 130.157 74.2756 129.831 74.8614C130.485 75.2385 132.398 76.9795 133.065 77.5668L138.864 82.6845L133.365 95.8276L109.341 74.7193C110.191 73.9471 111.066 73.1952 111.963 72.465C112.511 71.9088 112.756 71.6891 113.393 71.2127Z" fill="url(#paint6_linear_1398_126)"/>
<path d="M111.963 72.4651L112.03 72.7015C111.495 73.2504 110.068 74.3503 109.912 74.7912C110.023 74.8811 110.133 74.9717 110.244 75.0617C116.448 75.0638 122.656 75.0856 128.86 75.074C129.46 75.0725 129.598 75.0566 129.831 74.8615C130.485 75.2386 132.398 76.9795 133.065 77.5669L138.864 82.6846L133.365 95.8277L109.341 74.7194C110.191 73.9472 111.066 73.1953 111.963 72.4651Z" fill="url(#paint7_linear_1398_126)"/>
<path d="M116.894 68.4988C118.053 68.6003 120.516 68.5416 121.773 68.5416L131.275 68.5394C132.403 68.5387 135.104 68.4734 136.105 68.6387L136.304 68.952C135.295 69.8808 130.157 74.2756 129.832 74.8615C129.598 75.0566 129.46 75.0725 128.86 75.074C122.656 75.0856 116.448 75.0638 110.244 75.0616C110.133 74.9717 110.023 74.8811 109.912 74.7912C110.068 74.3503 111.495 73.2503 112.03 72.7014L111.963 72.4651C112.511 71.9089 112.756 71.6892 113.393 71.2128C114.243 71.0366 116.18 69.134 116.894 68.4988Z" fill="white"/>
<path d="M197.53 54.8198L209.143 65.014C210.711 66.3902 213.695 68.8599 215.047 70.2673C216.753 71.629 218.535 73.2641 220.176 74.7129C218.636 76.0717 216.649 77.92 215.049 79.1556C213.931 80.3244 211.56 82.2938 210.251 83.4438L201.195 91.3974L193.006 98.5903C189.795 101.412 187.481 103.886 182.992 105.148C177.557 106.782 172.227 105.721 167.617 102.895C169.902 100.982 172.324 98.7745 174.574 96.8008L178.514 100.263L182.418 90.8971C182.583 90.4707 182.858 89.7079 183.181 89.3729C184.858 87.6363 186.939 85.9185 188.777 84.3052L199.708 74.7107L192.04 67.9709L197.53 54.8198Z" fill="url(#paint8_linear_1398_126)"/>
<path d="M178.514 100.263L182.418 90.897C183.355 92.2188 182.132 103.375 182.992 105.148C177.557 106.782 172.227 105.721 167.617 102.894C169.902 100.982 172.324 98.7744 174.574 96.8007L178.514 100.263Z" fill="url(#paint9_linear_1398_126)"/>
<path d="M215.049 79.1554L214.869 79.0336C214.191 79.3657 214.058 79.8588 213.31 80.333C213.089 79.8247 213.061 70.099 213.227 69.1396C213.592 69.1571 214.226 69.9481 214.813 70.373L215.047 70.2672C216.753 71.6289 218.535 73.264 220.176 74.7128C218.636 76.0716 216.649 77.9199 215.049 79.1554Z" fill="#F9F9F9"/>
<path d="M155.139 58.0413L165.194 66.8751C166.358 65.8781 170.382 62.0888 171.413 61.4855C171.302 62.0917 170.64 62.1671 170.424 62.6812C170.362 62.8284 170.261 85.8292 170.465 86.774C170.851 87.1576 171.562 87.6775 171.684 88.0349L171.612 88.214C171.029 87.8892 166.944 84.1984 166.237 83.5669L131.776 113.84C134.651 107.501 137.467 100.288 140.169 93.8372L155.139 58.0413Z" fill="url(#paint10_linear_1398_126)"/>
<path d="M63.7059 123.38H110.531L110.532 133.892H93.3858L93.3874 150.812C89.2037 150.833 85.0191 150.826 80.8354 150.791V133.892H63.7053L63.7059 123.38Z" fill="url(#paint11_linear_1398_126)"/>
<path d="M282.496 123.38H329.288L329.29 133.892H312.16L312.151 149.741C312.031 150.128 311.995 150.264 312.023 150.663C311.247 150.994 301.322 150.807 299.616 150.807V133.892H282.494L282.496 123.38Z" fill="url(#paint12_linear_1398_126)"/>
<path d="M173.025 60.0143C174.919 58.2567 176.936 56.4947 178.906 54.7994C185.872 48.8059 192.638 42.5704 199.631 36.6057C193.895 49.8368 188.553 63.2961 182.875 76.5502C180.676 81.6832 178.544 87.3019 176.241 92.3544C175.348 91.5699 173.536 90.0689 172.803 89.2662C172.373 89.0103 171.968 88.5651 171.612 88.2141L171.684 88.035C171.562 87.6775 170.851 87.1576 170.465 86.7741C170.261 85.8293 170.362 62.8284 170.424 62.6812C170.64 62.1671 171.303 62.0917 171.413 61.4856C172.027 60.8192 172.318 60.5806 173.025 60.0143Z" fill="url(#paint13_linear_1398_126)"/>
<path d="M173.025 60.0144L173.282 60.0724C173.592 59.8252 173.866 59.6055 174.162 59.3408V90.0821C173.78 89.734 173.447 89.3359 172.969 89.1895L172.803 89.2663C172.373 89.0104 171.968 88.5652 171.612 88.2142L171.684 88.0351C171.562 87.6776 170.851 87.1577 170.465 86.7742C170.261 85.8294 170.362 62.8285 170.424 62.6813C170.64 62.1672 171.303 62.0918 171.413 61.4857C172.027 60.8193 172.318 60.5807 173.025 60.0144Z" fill="white"/>
<path d="M115.905 150.808C119.056 150.817 125.622 150.994 128.523 150.756L128.523 153.737H156.913L156.913 164.328H115.905V150.808Z" fill="url(#paint14_linear_1398_126)"/>
<path d="M164.379 26.0131L173.232 33.7896L183.679 42.9681L176.56 49.2216C176.021 49.6946 173.918 51.6047 173.417 51.8947C173.253 51.7584 172.959 51.53 172.828 51.3857C165.837 45.667 161.098 38.3109 150.189 40.7863C150.225 40.1573 150.314 39.6141 150.124 39.0138L149.723 38.9094L164.379 26.0131Z" fill="url(#paint15_linear_1398_126)"/>
<path d="M173.232 33.7896L183.679 42.9681L176.56 49.2216C176.021 49.6946 173.918 51.6046 173.417 51.8947C173.253 51.7583 172.959 51.5299 172.827 51.3856C173.332 50.678 173.16 48.6631 173.158 47.7441L173.136 38.6869C173.134 37.3345 173.058 35.0733 173.232 33.7896Z" fill="url(#paint16_linear_1398_126)"/>
<path d="M156.5 98.1995C159.268 100.508 161.864 103.074 164.673 105.358C170.744 110.295 177.611 110.237 184.203 106.289C180.067 110.161 175.071 114.347 170.753 118.142L164.741 123.405L146.285 107.183L156.5 98.1995Z" fill="white"/>
<path d="M115.905 123.38H128.522L128.523 150.756C125.622 150.995 119.056 150.818 115.905 150.808L115.905 123.38Z" fill="url(#paint17_linear_1398_126)"/>
<path d="M160.322 164.328L168.817 150.812L182.347 150.818C179.873 155.185 176.809 159.977 174.177 164.328H160.322Z" fill="url(#paint18_linear_1398_126)"/>
<path d="M8.74268 164.328C10.2167 161.758 12.1425 158.944 13.7056 156.37C14.603 154.892 16.4602 151.797 17.4393 150.514C17.5523 150.598 17.6652 150.682 17.7782 150.767C21.9498 150.908 26.1886 150.808 30.3687 150.804C30.5 150.803 30.7183 150.74 30.7838 150.723C30.0892 152.047 28.8744 153.91 28.0751 155.232L22.5747 164.328H8.74268Z" fill="url(#paint19_linear_1398_126)"/>
<path d="M80.8354 150.792C85.0192 150.826 89.2038 150.833 93.3875 150.812L93.3891 164.328H80.8354V150.792Z" fill="url(#paint20_linear_1398_126)"/>
<path d="M299.616 150.807C301.322 150.807 311.247 150.994 312.023 150.663C311.995 150.264 312.031 150.128 312.151 149.741L312.161 164.328H299.616V150.807Z" fill="url(#paint21_linear_1398_126)"/>
<path d="M226.633 149.742C226.708 150.112 226.741 150.203 226.756 150.572C227.006 150.82 226.886 150.792 227.447 150.801C231.217 150.857 235.057 150.825 238.826 150.817V164.328H226.628L226.633 149.742Z" fill="url(#paint22_linear_1398_126)"/>
<path d="M173.791 174.23C176.073 174.119 178.502 174.05 180.55 175.039C182.107 175.774 183.257 177.034 183.735 178.529C184.248 180.129 183.992 181.844 183.026 183.272C181.886 184.92 180.31 185.6 178.299 186.057C175.844 186.296 172.893 186.338 170.72 185.197C169.196 184.406 168.112 183.098 167.726 181.58C166.711 177.66 169.562 174.937 173.791 174.23ZM177.6 183.046C180.738 182.206 181.416 178.91 178.39 177.549C177.483 177.142 175.252 177.268 174.113 177.281C170.914 177.961 170.045 181.246 172.988 182.732C173.92 183.202 176.408 183.056 177.6 183.046Z" fill="url(#paint23_linear_1398_126)"/>
<path d="M221.356 174.225C223.484 174.178 226.223 174.009 228.026 175.021C233.72 178.218 232.195 184.69 225.757 186.06C223.322 186.295 220.407 186.337 218.25 185.208C216.721 184.419 215.632 183.109 215.241 181.589C214.214 177.653 217.084 174.894 221.356 174.225ZM225.135 183.048C228.325 182.099 228.928 178.821 225.751 177.493C224.919 177.145 222.673 177.265 221.635 177.281C218.4 177.944 217.552 181.299 220.537 182.752C221.448 183.195 223.967 183.055 225.135 183.048Z" fill="url(#paint24_linear_1398_126)"/>
<path d="M247.502 174.239C250.09 174.135 253.087 174.199 255.707 174.204L255.708 177.282C253.962 177.282 247.586 176.86 246.011 177.935C244.138 179.214 244.65 182.357 247.099 182.911C248.321 183.187 250.665 183.066 252.195 183.048L252.197 181.437H247.815L247.816 178.848H250.078H255.708V186.155C252.78 186.171 246.34 186.616 244.063 185.069C239.016 181.639 240.747 175.169 247.502 174.239Z" fill="url(#paint25_linear_1398_126)"/>
<path d="M153.847 174.204H157.402C157.405 175.701 157.684 185.145 157.027 185.857C156.446 186.2 156.169 186.158 155.439 186.208C154.288 186.057 153.995 185.879 153.184 185.137C150.822 182.974 148.506 180.702 146.211 178.489L146.213 186.155L142.648 186.155L142.62 179.392C142.615 178.085 142.557 176.631 142.726 175.337C142.814 174.663 143.119 174.553 143.641 174.212C144.427 174.193 146.056 174.095 146.646 174.542C149.164 176.451 151.597 178.994 153.847 181.15V174.204Z" fill="url(#paint26_linear_1398_126)"/>
<path d="M70.7628 174.204H83.8178L83.8186 177.281H74.4241L74.4278 183.048H77.9424H83.8318L83.8326 186.155L70.762 186.154L70.7628 174.204Z" fill="url(#paint27_linear_1398_126)"/>
<path d="M100.213 174.229C102.489 174.128 105.416 174.201 107.742 174.204V177.282C105.937 177.292 99.6632 176.765 98.3685 178.192C96.3525 180.416 98.0417 183.184 101.444 183.086C103.093 183.039 105.445 183.061 107.278 183.048C107.499 183.046 107.366 183.032 107.667 183.145C107.839 183.977 107.761 185.27 107.744 186.155C104.503 186.176 99.546 186.591 96.8856 185.15C95.3895 184.348 94.3489 183.029 94.0197 181.517C93.1227 177.605 95.911 174.81 100.213 174.229Z" fill="url(#paint28_linear_1398_126)"/>
<path d="M47.1722 174.204H60.8517V177.281H55.8628L55.8629 181.66L55.8631 186.154H52.1494L52.1496 177.281H47.1721L47.1722 174.204Z" fill="url(#paint29_linear_1398_126)"/>
<path d="M277.201 174.204H281.316L277.942 178.423L275.091 181.989L275.092 186.154H271.442L271.443 181.979L265.206 174.204H269.494L273.345 178.939L277.201 174.204Z" fill="url(#paint30_linear_1398_126)"/>
<path d="M194.162 174.204H197.846L197.847 183.048H206.113L206.114 186.155L194.162 186.154V174.204Z" fill="url(#paint31_linear_1398_126)"/>
<path d="M128.334 174.204H131.993V186.154C130.787 186.136 129.58 186.381 128.591 186.052C128.189 185.584 128.334 185.592 128.329 184.851L128.33 181.551H123.032V178.581H128.332L128.334 174.204Z" fill="url(#paint32_linear_1398_126)"/>
<path d="M118.134 174.204H121.802V186.155L118.134 186.154L118.134 174.204Z" fill="url(#paint33_linear_1398_126)"/>
<path d="M75.6113 178.846H83.6668L83.6627 181.435H75.6176L75.6113 178.846Z" fill="white"/>
<path d="M149.723 38.9094L150.124 39.0139C150.314 39.6141 150.225 40.1574 150.189 40.7863C148.006 41.2973 146.476 42.2109 144.668 43.346L149.723 38.9094Z" fill="url(#paint34_linear_1398_126)"/>
<defs>
<linearGradient id="paint0_linear_1398_126" x1="251.813" y1="150.701" x2="251.81" y2="123.578" gradientUnits="userSpaceOnUse">
<stop stop-color="white"/>
<stop offset="1" stop-color="white"/>
</linearGradient>
<linearGradient id="paint1_linear_1398_126" x1="264.766" y1="163.895" x2="264.767" y2="150.843" gradientUnits="userSpaceOnUse">
<stop stop-color="white"/>
<stop offset="1" stop-color="white"/>
</linearGradient>
<linearGradient id="paint2_linear_1398_126" x1="39.4197" y1="150.713" x2="39.4195" y2="123.594" gradientUnits="userSpaceOnUse">
<stop stop-color="white"/>
<stop offset="1" stop-color="white"/>
</linearGradient>
<linearGradient id="paint3_linear_1398_126" x1="50.8764" y1="163.898" x2="50.8749" y2="150.842" gradientUnits="userSpaceOnUse">
<stop stop-color="white"/>
<stop offset="1" stop-color="white"/>
</linearGradient>
<linearGradient id="paint4_linear_1398_126" x1="191.077" y1="150.699" x2="191.076" y2="123.58" gradientUnits="userSpaceOnUse">
<stop stop-color="white"/>
<stop offset="1" stop-color="white"/>
</linearGradient>
<linearGradient id="paint5_linear_1398_126" x1="202.217" y1="163.898" x2="202.216" y2="150.842" gradientUnits="userSpaceOnUse">
<stop stop-color="white"/>
<stop offset="1" stop-color="white"/>
</linearGradient>
<linearGradient id="paint6_linear_1398_126" x1="139.096" y1="43.8137" x2="139.087" y2="68.481" gradientUnits="userSpaceOnUse">
<stop stop-color="white"/>
<stop offset="1" stop-color="white"/>
</linearGradient>
<linearGradient id="paint7_linear_1398_126" x1="124.404" y1="74.9957" x2="124.392" y2="95.1512" gradientUnits="userSpaceOnUse">
<stop stop-color="white"/>
<stop offset="1" stop-color="white"/>
</linearGradient>
<linearGradient id="paint8_linear_1398_126" x1="213.029" y1="79.9987" x2="182.655" y2="80.004" gradientUnits="userSpaceOnUse">
<stop stop-color="white"/>
<stop offset="1" stop-color="white"/>
</linearGradient>
<linearGradient id="paint9_linear_1398_126" x1="182.664" y1="98.3459" x2="168.133" y2="98.3547" gradientUnits="userSpaceOnUse">
<stop stop-color="white"/>
<stop offset="1" stop-color="white"/>
</linearGradient>
<linearGradient id="paint10_linear_1398_126" x1="132.177" y1="85.7961" x2="170.282" y2="85.8229" gradientUnits="userSpaceOnUse">
<stop stop-color="white"/>
<stop offset="1" stop-color="white"/>
</linearGradient>
<linearGradient id="paint11_linear_1398_126" x1="87.0195" y1="150.699" x2="87.0194" y2="123.58" gradientUnits="userSpaceOnUse">
<stop stop-color="white"/>
<stop offset="1" stop-color="white"/>
</linearGradient>
<linearGradient id="paint12_linear_1398_126" x1="305.779" y1="150.699" x2="305.779" y2="123.58" gradientUnits="userSpaceOnUse">
<stop stop-color="white"/>
<stop offset="1" stop-color="white"/>
</linearGradient>
<linearGradient id="paint13_linear_1398_126" x1="174.24" y1="64.4855" x2="199.001" y2="64.4832" gradientUnits="userSpaceOnUse">
<stop stop-color="white"/>
<stop offset="1" stop-color="white"/>
</linearGradient>
<linearGradient id="paint14_linear_1398_126" x1="136.281" y1="163.9" x2="136.285" y2="150.846" gradientUnits="userSpaceOnUse">
<stop stop-color="white"/>
<stop offset="1" stop-color="white"/>
</linearGradient>
<linearGradient id="paint15_linear_1398_126" x1="173.056" y1="38.7462" x2="150.272" y2="38.7293" gradientUnits="userSpaceOnUse">
<stop stop-color="white"/>
<stop offset="1" stop-color="white"/>
</linearGradient>
<linearGradient id="paint16_linear_1398_126" x1="182.949" y1="42.804" x2="173.047" y2="42.8041" gradientUnits="userSpaceOnUse">
<stop stop-color="white"/>
<stop offset="1" stop-color="white"/>
</linearGradient>
<linearGradient id="paint17_linear_1398_126" x1="122.09" y1="150.699" x2="122.09" y2="123.58" gradientUnits="userSpaceOnUse">
<stop stop-color="white"/>
<stop offset="1" stop-color="white"/>
</linearGradient>
<linearGradient id="paint18_linear_1398_126" x1="171.354" y1="163.895" x2="171.354" y2="150.844" gradientUnits="userSpaceOnUse">
<stop stop-color="white"/>
<stop offset="1" stop-color="white"/>
</linearGradient>
<linearGradient id="paint19_linear_1398_126" x1="19.7256" y1="163.895" x2="19.7257" y2="150.844" gradientUnits="userSpaceOnUse">
<stop stop-color="white"/>
<stop offset="1" stop-color="white"/>
</linearGradient>
<linearGradient id="paint20_linear_1398_126" x1="87.102" y1="163.895" x2="87.102" y2="150.844" gradientUnits="userSpaceOnUse">
<stop stop-color="white"/>
<stop offset="1" stop-color="white"/>
</linearGradient>
<linearGradient id="paint21_linear_1398_126" x1="305.779" y1="163.895" x2="305.779" y2="150.844" gradientUnits="userSpaceOnUse">
<stop stop-color="white"/>
<stop offset="1" stop-color="white"/>
</linearGradient>
<linearGradient id="paint22_linear_1398_126" x1="232.666" y1="163.895" x2="232.666" y2="150.844" gradientUnits="userSpaceOnUse">
<stop stop-color="white"/>
<stop offset="1" stop-color="white"/>
</linearGradient>
<linearGradient id="paint23_linear_1398_126" x1="175.646" y1="185.793" x2="175.646" y2="174.482" gradientUnits="userSpaceOnUse">
<stop stop-color="white"/>
<stop offset="1" stop-color="white"/>
</linearGradient>
<linearGradient id="paint24_linear_1398_126" x1="223.177" y1="185.793" x2="223.177" y2="174.482" gradientUnits="userSpaceOnUse">
<stop stop-color="white"/>
<stop offset="1" stop-color="white"/>
</linearGradient>
<linearGradient id="paint25_linear_1398_126" x1="248.344" y1="185.794" x2="248.348" y2="174.479" gradientUnits="userSpaceOnUse">
<stop stop-color="white"/>
<stop offset="1" stop-color="white"/>
</linearGradient>
<linearGradient id="paint26_linear_1398_126" x1="149.899" y1="185.794" x2="149.899" y2="174.482" gradientUnits="userSpaceOnUse">
<stop stop-color="white"/>
<stop offset="1" stop-color="white"/>
</linearGradient>
<linearGradient id="paint27_linear_1398_126" x1="77.2809" y1="185.794" x2="77.283" y2="174.481" gradientUnits="userSpaceOnUse">
<stop stop-color="white"/>
<stop offset="1" stop-color="white"/>
</linearGradient>
<linearGradient id="paint28_linear_1398_126" x1="100.798" y1="185.794" x2="100.804" y2="174.478" gradientUnits="userSpaceOnUse">
<stop stop-color="white"/>
<stop offset="1" stop-color="white"/>
</linearGradient>
<linearGradient id="paint29_linear_1398_126" x1="53.9291" y1="185.793" x2="53.9291" y2="174.482" gradientUnits="userSpaceOnUse">
<stop stop-color="white"/>
<stop offset="1" stop-color="white"/>
</linearGradient>
<linearGradient id="paint30_linear_1398_126" x1="273.184" y1="185.793" x2="273.183" y2="174.482" gradientUnits="userSpaceOnUse">
<stop stop-color="white"/>
<stop offset="1" stop-color="white"/>
</linearGradient>
<linearGradient id="paint31_linear_1398_126" x1="200.072" y1="185.797" x2="200.065" y2="174.478" gradientUnits="userSpaceOnUse">
<stop stop-color="white"/>
<stop offset="1" stop-color="white"/>
</linearGradient>
<linearGradient id="paint32_linear_1398_126" x1="127.446" y1="185.792" x2="127.466" y2="174.475" gradientUnits="userSpaceOnUse">
<stop stop-color="white"/>
<stop offset="1" stop-color="white"/>
</linearGradient>
<linearGradient id="paint33_linear_1398_126" x1="119.945" y1="185.793" x2="119.945" y2="174.482" gradientUnits="userSpaceOnUse">
<stop stop-color="white"/>
<stop offset="1" stop-color="white"/>
</linearGradient>
<linearGradient id="paint34_linear_1398_126" x1="146.303" y1="40.4917" x2="150.115" y2="40.4723" gradientUnits="userSpaceOnUse">
<stop stop-color="white" stop-opacity="0.968627"/>
<stop offset="1" stop-color="white"/>
</linearGradient>
</defs>
</svg>
