<svg width="1440" height="900" viewBox="0 0 1440 900" fill="none" xmlns="http://www.w3.org/2000/svg">
  <rect width="1440" height="900" rx="44" fill="#08121F"/>
  <rect x="48" y="48" width="1344" height="804" rx="30" fill="#0F1C32" stroke="#243652" stroke-width="2"/>
  <rect x="92" y="92" width="1256" height="90" rx="24" fill="#13253F"/>
  <rect x="126" y="124" width="240" height="16" rx="8" fill="#F4F8FF"/>
  <rect x="126" y="154" width="180" height="10" rx="5" fill="#6C86A6"/>
  <rect x="1084" y="118" width="220" height="42" rx="21" fill="#1E7FF7"/>
  <rect x="92" y="218" width="302" height="590" rx="28" fill="#0B1627"/>
  <rect x="126" y="258" width="176" height="14" rx="7" fill="#DDEBFF"/>
  <rect x="126" y="300" width="234" height="64" rx="18" fill="#17365C"/>
  <rect x="126" y="384" width="234" height="64" rx="18" fill="#11263F"/>
  <rect x="126" y="468" width="234" height="64" rx="18" fill="#11263F"/>
  <rect x="126" y="552" width="234" height="64" rx="18" fill="#11263F"/>
  <rect x="430" y="218" width="918" height="590" rx="28" fill="#0D1A2D"/>
  <rect x="468" y="258" width="882" height="54" rx="18" fill="#111F35"/>
  <rect x="500" y="278" width="120" height="14" rx="7" fill="#E6F0FF"/>
  <rect x="468" y="344" width="882" height="412" rx="24" fill="#0A1525"/>
  <line x1="468" y1="424" x2="1350" y2="424" stroke="#20314B" stroke-width="2"/>
  <line x1="468" y1="504" x2="1350" y2="504" stroke="#20314B" stroke-width="2"/>
  <line x1="468" y1="584" x2="1350" y2="584" stroke="#20314B" stroke-width="2"/>
  <line x1="468" y1="664" x2="1350" y2="664" stroke="#20314B" stroke-width="2"/>
  <line x1="594" y1="344" x2="594" y2="756" stroke="#20314B" stroke-width="2"/>
  <line x1="720" y1="344" x2="720" y2="756" stroke="#20314B" stroke-width="2"/>
  <line x1="846" y1="344" x2="846" y2="756" stroke="#20314B" stroke-width="2"/>
  <line x1="972" y1="344" x2="972" y2="756" stroke="#20314B" stroke-width="2"/>
  <line x1="1098" y1="344" x2="1098" y2="756" stroke="#20314B" stroke-width="2"/>
  <line x1="1224" y1="344" x2="1224" y2="756" stroke="#20314B" stroke-width="2"/>
  <rect x="742" y="446" width="210" height="54" rx="18" fill="#1E7FF7"/>
  <rect x="760" y="466" width="128" height="12" rx="6" fill="#EAF3FF"/>
  <rect x="1114" y="610" width="172" height="54" rx="18" fill="#31C48D"/>
  <rect x="1134" y="630" width="88" height="12" rx="6" fill="#08261B"/>
  <rect x="612" y="606" width="158" height="54" rx="18" fill="#F59E0B"/>
  <rect x="632" y="626" width="92" height="12" rx="6" fill="#351E02"/>
</svg>
