<svg width="1440" height="900" viewBox="0 0 1440 900" fill="none" xmlns="http://www.w3.org/2000/svg">
  <rect width="1440" height="900" rx="44" fill="#08111E"/>
  <rect x="48" y="48" width="1344" height="804" rx="30" fill="#0F1B30" stroke="#23354F" stroke-width="2"/>
  <rect x="88" y="88" width="1256" height="110" rx="28" fill="#12243C"/>
  <rect x="124" y="128" width="300" height="18" rx="9" fill="#EEF5FF"/>
  <rect x="124" y="162" width="386" height="12" rx="6" fill="#6881A0"/>
  <rect x="88" y="234" width="340" height="570" rx="28" fill="#0A1525"/>
  <circle cx="258" cy="348" r="74" fill="#17365C"/>
  <circle cx="258" cy="332" r="28" fill="#E5F0FF"/>
  <rect x="190" y="372" width="136" height="76" rx="38" fill="#E5F0FF"/>
  <rect x="132" y="486" width="252" height="18" rx="9" fill="#17365C"/>
  <rect x="132" y="524" width="252" height="18" rx="9" fill="#17365C"/>
  <rect x="132" y="562" width="188" height="18" rx="9" fill="#17365C"/>
  <rect x="132" y="640" width="252" height="112" rx="24" fill="#10253F"/>
  <rect x="464" y="234" width="880" height="570" rx="28" fill="#0D192C"/>
  <rect x="502" y="274" width="240" height="14" rx="7" fill="#E6F0FF"/>
  <rect x="502" y="320" width="392" height="180" rx="24" fill="#101F34"/>
  <rect x="926" y="320" width="380" height="180" rx="24" fill="#101F34"/>
  <rect x="502" y="536" width="804" height="228" rx="24" fill="#101F34"/>
  <rect x="540" y="574" width="208" height="12" rx="6" fill="#E5F0FF"/>
  <rect x="540" y="618" width="728" height="18" rx="9" fill="#17365C"/>
  <rect x="540" y="656" width="728" height="18" rx="9" fill="#17365C"/>
  <rect x="540" y="694" width="612" height="18" rx="9" fill="#17365C"/>
  <path d="M566 442C618 390 664 382 712 396C760 410 800 450 852 430" stroke="#31C48D" stroke-width="14" stroke-linecap="round"/>
  <rect x="956" y="356" width="140" height="18" rx="9" fill="#EAF3FF"/>
  <rect x="956" y="396" width="314" height="18" rx="9" fill="#1D4ED8"/>
  <rect x="956" y="432" width="248" height="18" rx="9" fill="#17365C"/>
</svg>
